<svg width="1191" height="1641" viewBox="0 0 1191 1641" fill="none" xmlns="http://www.w3.org/2000/svg">
<path d="M204.519 571.517L155 669.46L223.743 738.933L254.89 707.786C254.89 707.786 215.956 677.247 231.408 657.78C246.86 638.313 317.671 571.517 317.671 571.517L260.73 458L226.784 527.594V593.174L204.519 571.517Z" stroke="url(#paint0_linear)" stroke-width="4"/>
<path d="M259.513 776.163L228.731 745.381V744.773L287.254 686.25C287.254 686.25 295.162 677.003 295.162 670.676C295.162 664.35 287.254 655.103 287.254 655.103L265.718 633.324L319.861 579.182L365 670.676L259.513 776.163Z" stroke="url(#paint1_linear)" stroke-width="4"/>
<circle cx="260" cy="617" r="258" stroke="url(#paint2_linear)" stroke-width="4"/>
<path d="M875.519 928.517L826 1026.46L894.743 1095.93L925.89 1064.79C925.89 1064.79 886.956 1034.25 902.408 1014.78C917.86 995.313 988.671 928.517 988.671 928.517L931.73 815L897.784 884.594V950.174L875.519 928.517Z" stroke="url(#paint3_linear)" stroke-width="4"/>
<path d="M930.513 1133.16L899.731 1102.38V1101.77L958.254 1043.25C958.254 1043.25 966.162 1034 966.162 1027.68C966.162 1021.35 958.254 1012.1 958.254 1012.1L936.718 990.324L990.861 936.182L1036 1027.68L930.513 1133.16Z" stroke="url(#paint4_linear)" stroke-width="4"/>
<circle cx="931" cy="974" r="258" stroke="url(#paint5_linear)" stroke-width="4"/>
<path d="M204.519 1335.52L155 1433.46L223.743 1502.93L254.89 1471.79C254.89 1471.79 215.956 1441.25 231.408 1421.78C246.86 1402.31 317.671 1335.52 317.671 1335.52L260.73 1222L226.784 1291.59V1357.17L204.519 1335.52Z" stroke="url(#paint6_linear)" stroke-width="4"/>
<path d="M259.513 1540.16L228.731 1509.38V1508.77L287.254 1450.25C287.254 1450.25 295.162 1441 295.162 1434.68C295.162 1428.35 287.254 1419.1 287.254 1419.1L265.718 1397.32L319.861 1343.18L365 1434.68L259.513 1540.16Z" stroke="url(#paint7_linear)" stroke-width="4"/>
<circle cx="260" cy="1381" r="258" stroke="url(#paint8_linear)" stroke-width="4"/>
<path d="M875.519 214.517L826 312.46L894.743 381.933L925.89 350.786C925.89 350.786 886.956 320.247 902.408 300.78C917.86 281.313 988.671 214.517 988.671 214.517L931.73 101L897.784 170.594V236.174L875.519 214.517Z" stroke="url(#paint9_linear)" stroke-width="4"/>
<path d="M930.513 419.163L899.731 388.381V387.773L958.254 329.25C958.254 329.25 966.162 320.003 966.162 313.676C966.162 307.35 958.254 298.103 958.254 298.103L936.718 276.324L990.861 222.182L1036 313.676L930.513 419.163Z" stroke="url(#paint10_linear)" stroke-width="4"/>
<circle cx="931" cy="260" r="258" stroke="url(#paint11_linear)" stroke-width="4"/>
<rect x="464" y="458.351" width="255.889" height="4" transform="rotate(-32.9226 464 458.351)" fill="url(#paint12_radial)"/>
<rect x="478.795" y="1240.68" width="268.046" height="4" transform="rotate(-32.9226 478.795 1240.68)" fill="url(#paint13_radial)"/>
<rect x="501.689" y="702" width="255.889" height="4" transform="rotate(24.9802 501.689 702)" fill="url(#paint14_radial)"/>
<defs>
<linearGradient id="paint0_linear" x1="365.62" y1="560.343" x2="70.6307" y2="632.405" gradientUnits="userSpaceOnUse">
<stop stop-color="#F0C90A"/>
<stop offset="0.848958" stop-color="#00A3E0"/>
</linearGradient>
<linearGradient id="paint1_linear" x1="405.167" y1="650.941" x2="163.863" y2="721.367" gradientUnits="userSpaceOnUse">
<stop stop-color="#F0C90A"/>
<stop offset="0.848958" stop-color="#00A3E0"/>
</linearGradient>
<linearGradient id="paint2_linear" x1="260" y1="357" x2="260" y2="877" gradientUnits="userSpaceOnUse">
<stop stop-color="#F0C90A"/>
<stop offset="1" stop-color="#00BBF9"/>
</linearGradient>
<linearGradient id="paint3_linear" x1="1036.62" y1="917.343" x2="741.631" y2="989.405" gradientUnits="userSpaceOnUse">
<stop stop-color="#F0C90A"/>
<stop offset="0.848958" stop-color="#00A3E0"/>
</linearGradient>
<linearGradient id="paint4_linear" x1="1076.17" y1="1007.94" x2="834.863" y2="1078.37" gradientUnits="userSpaceOnUse">
<stop stop-color="#F0C90A"/>
<stop offset="0.848958" stop-color="#00A3E0"/>
</linearGradient>
<linearGradient id="paint5_linear" x1="931" y1="714" x2="931" y2="1234" gradientUnits="userSpaceOnUse">
<stop stop-color="#F0C90A"/>
<stop offset="1" stop-color="#00BBF9"/>
</linearGradient>
<linearGradient id="paint6_linear" x1="365.62" y1="1324.34" x2="70.6307" y2="1396.41" gradientUnits="userSpaceOnUse">
<stop stop-color="#F0C90A"/>
<stop offset="0.848958" stop-color="#00A3E0"/>
</linearGradient>
<linearGradient id="paint7_linear" x1="405.167" y1="1414.94" x2="163.863" y2="1485.37" gradientUnits="userSpaceOnUse">
<stop stop-color="#F0C90A"/>
<stop offset="0.848958" stop-color="#00A3E0"/>
</linearGradient>
<linearGradient id="paint8_linear" x1="260" y1="1121" x2="260" y2="1641" gradientUnits="userSpaceOnUse">
<stop stop-color="#F0C90A"/>
<stop offset="1" stop-color="#00BBF9"/>
</linearGradient>
<linearGradient id="paint9_linear" x1="1036.62" y1="203.343" x2="741.631" y2="275.405" gradientUnits="userSpaceOnUse">
<stop stop-color="#F0C90A"/>
<stop offset="0.848958" stop-color="#00A3E0"/>
</linearGradient>
<linearGradient id="paint10_linear" x1="1076.17" y1="293.941" x2="834.863" y2="364.367" gradientUnits="userSpaceOnUse">
<stop stop-color="#F0C90A"/>
<stop offset="0.848958" stop-color="#00A3E0"/>
</linearGradient>
<linearGradient id="paint11_linear" x1="931" y1="0" x2="931" y2="520" gradientUnits="userSpaceOnUse">
<stop stop-color="#F0C90A"/>
<stop offset="1" stop-color="#00BBF9"/>
</linearGradient>
<radialGradient id="paint12_radial" cx="0" cy="0" r="1" gradientUnits="userSpaceOnUse" gradientTransform="translate(591.945 460.351) rotate(90) scale(2 127.945)">
<stop stop-color="#F0C90A"/>
<stop offset="1" stop-color="#03A2E9"/>
</radialGradient>
<radialGradient id="paint13_radial" cx="0" cy="0" r="1" gradientUnits="userSpaceOnUse" gradientTransform="translate(612.818 1242.68) rotate(90) scale(2 134.023)">
<stop stop-color="#F0C90A"/>
<stop offset="1" stop-color="#03A2E9"/>
</radialGradient>
<radialGradient id="paint14_radial" cx="0" cy="0" r="1" gradientUnits="userSpaceOnUse" gradientTransform="translate(629.634 704) rotate(90) scale(2 127.945)">
<stop stop-color="#F0C90A"/>
<stop offset="1" stop-color="#03A2E9"/>
</radialGradient>
</defs>
</svg>
