<svg width="512" height="512" viewBox="0 0 512 512" fill="none" xmlns="http://www.w3.org/2000/svg">
<path d="M142.574 396.914L150.074 383.922L199.137 412.254L191.633 425.242L142.574 396.914Z" fill="#F0C90A"/>
<path d="M142.488 115.344L191.629 86.9648L199.133 99.957L149.988 128.336L142.488 115.344Z" fill="#F0C90A"/>
<path d="M313.836 99.9258L321.34 86.9336L370.48 115.316L362.98 128.305L313.836 99.9258Z" fill="#F0C90A"/>
<path d="M420.383 227.609H435.383V284.738H420.383V227.609Z" fill="#F0C90A"/>
<path d="M256.484 395.832C224.457 395.832 198.398 421.891 198.398 453.914C198.398 485.945 224.457 512 256.484 512C288.512 512 314.566 485.945 314.566 453.914C314.566 421.891 288.512 395.832 256.484 395.832V395.832ZM256.484 497C232.727 497 213.398 477.672 213.398 453.914C213.398 430.16 232.727 410.832 256.484 410.832C280.242 410.832 299.566 430.16 299.566 453.914C299.566 477.672 280.242 497 256.484 497V497Z" fill="#F0C90A"/>
<path d="M256.484 116.168C288.512 116.168 314.566 90.1094 314.566 58.0859C314.566 26.0547 288.512 0 256.484 0C224.457 0 198.398 26.0547 198.398 58.0859C198.398 90.1094 224.457 116.168 256.484 116.168V116.168ZM256.484 15C280.242 15 299.566 34.3281 299.566 58.0859C299.566 81.8398 280.242 101.168 256.484 101.168C232.727 101.168 213.398 81.8398 213.398 58.0859C213.398 34.3281 232.727 15 256.484 15V15Z" fill="#F0C90A"/>
<path d="M256.484 314.129C288.512 314.129 314.566 288.074 314.566 256.047C314.566 224.02 288.512 197.961 256.484 197.961C224.457 197.961 198.398 224.02 198.398 256.047C198.398 288.074 224.457 314.129 256.484 314.129V314.129ZM256.484 212.961C280.242 212.961 299.566 232.289 299.566 256.043C299.566 279.801 280.242 299.129 256.484 299.129C232.727 299.129 213.398 279.801 213.398 256.043C213.398 232.289 232.727 212.961 256.484 212.961V212.961Z" fill="#F0C90A"/>
<path d="M427.883 214.855C459.91 214.855 485.969 188.801 485.969 156.77C485.969 124.742 459.91 98.6875 427.883 98.6875C395.855 98.6875 369.801 124.742 369.801 156.77C369.801 188.801 395.855 214.855 427.883 214.855V214.855ZM427.883 113.688C451.641 113.688 470.969 133.016 470.969 156.77C470.969 180.527 451.641 199.855 427.883 199.855C404.129 199.855 384.801 180.527 384.801 156.77C384.801 133.016 404.129 113.688 427.883 113.688V113.688Z" fill="#F0C90A"/>
<path d="M427.883 296.977C395.855 296.977 369.801 323.031 369.801 355.059C369.801 387.086 395.855 413.141 427.883 413.141C459.91 413.141 485.969 387.086 485.969 355.059C485.969 323.031 459.91 296.977 427.883 296.977V296.977ZM427.883 398.145C404.129 398.145 384.801 378.816 384.801 355.059C384.801 331.305 404.129 311.977 427.883 311.977C451.641 311.977 470.969 331.305 470.969 355.059C470.969 378.816 451.641 398.145 427.883 398.145V398.145Z" fill="#F0C90A"/>
<path d="M85.0859 214.855C117.109 214.855 143.168 188.801 143.168 156.77C143.168 124.742 117.109 98.6875 85.0859 98.6875C53.0547 98.6875 27 124.742 27 156.77C27 188.801 53.0547 214.855 85.0859 214.855ZM85.0859 113.688C108.84 113.688 128.168 133.016 128.168 156.77C128.168 180.527 108.84 199.855 85.0859 199.855C61.3281 199.855 42 180.527 42 156.77C42 133.016 61.3281 113.688 85.0859 113.688Z" fill="#F0C90A"/>
<path d="M85.0859 296.977C53.0547 296.977 27 323.031 27 355.059C27 387.086 53.0547 413.141 85.0859 413.141C117.109 413.141 143.168 387.086 143.168 355.059C143.168 323.031 117.109 296.977 85.0859 296.977V296.977ZM85.0859 398.145C61.3281 398.145 42 378.816 42 355.059C42 331.305 61.3281 311.977 85.0859 311.977C108.84 311.977 128.168 331.305 128.168 355.059C128.168 378.816 108.84 398.145 85.0859 398.145V398.145Z" fill="#F0C90A"/>
<path d="M248.984 128.762H263.984V185.461H248.984V128.762Z" fill="#F0C90A"/>
<path d="M142.324 313.363L191.625 284.848L199.133 297.832L149.832 326.348L142.324 313.363Z" fill="#F0C90A"/>
<path d="M313.84 297.824L321.352 284.84L370.652 313.363L363.141 326.348L313.84 297.824Z" fill="#F0C90A"/>
<path d="M279.879 477.309L269.27 466.703C272.68 463.297 274.555 458.754 274.555 453.914C274.555 451.461 274.074 449.078 273.125 446.836L286.938 440.984C288.676 445.09 289.559 449.438 289.559 453.914C289.555 462.762 286.117 471.066 279.879 477.309V477.309ZM243.695 441.129L233.09 430.523C237.715 425.898 243.547 422.773 249.953 421.492L252.898 436.199C249.402 436.898 246.223 438.605 243.695 441.129V441.129ZM269.176 441.035C266.637 438.531 263.441 436.848 259.941 436.176L262.781 421.445C269.199 422.684 275.051 425.762 279.707 430.355L269.176 441.035Z" fill="#F0C90A"/>
<path d="M279.879 81.4766L269.273 70.8711C272.68 67.4648 274.559 62.9219 274.559 58.0859C274.559 55.6289 274.074 53.2461 273.125 51.0039L286.938 45.1523C288.676 49.2578 289.559 53.6094 289.559 58.0859C289.555 66.9297 286.117 75.2344 279.879 81.4766V81.4766ZM243.695 45.2969L233.09 34.6914C237.715 30.0664 243.547 26.9414 249.953 25.6602L252.898 40.3672C249.402 41.0664 246.223 42.7695 243.695 45.2969ZM269.18 45.2031C266.637 42.6992 263.441 41.0156 259.941 40.3438L262.781 25.6133C269.195 26.8477 275.051 29.9297 279.707 34.5195L269.18 45.2031Z" fill="#F0C90A"/>
<path d="M279.879 279.438L269.27 268.832C272.68 265.422 274.559 260.883 274.559 256.043C274.559 253.59 274.074 251.207 273.125 248.965L286.938 243.113C288.676 247.219 289.559 251.566 289.559 256.043C289.555 264.887 286.117 273.195 279.879 279.438V279.438ZM243.695 243.258L233.09 232.652C237.715 228.027 243.547 224.902 249.953 223.621L252.898 238.328C249.402 239.027 246.223 240.73 243.695 243.258ZM269.18 243.164C266.637 240.66 263.441 238.977 259.941 238.305L262.781 223.574C269.195 224.809 275.051 227.891 279.707 232.48L269.18 243.164Z" fill="#F0C90A"/>
<path d="M451.277 180.164L440.672 169.559C444.078 166.152 445.957 161.609 445.957 156.77C445.957 154.316 445.477 151.934 444.523 149.688L458.34 143.84C460.074 147.945 460.957 152.297 460.957 156.77C460.957 165.617 457.52 173.926 451.277 180.164V180.164ZM415.098 143.984L404.492 133.379C409.117 128.754 414.949 125.629 421.352 124.348L424.297 139.055C420.805 139.754 417.621 141.457 415.098 143.984ZM440.578 143.891C438.035 141.387 434.844 139.703 431.344 139.027L434.18 124.301C440.598 125.535 446.449 128.617 451.109 133.207L440.578 143.891Z" fill="#F0C90A"/>
<path d="M451.277 378.453L440.672 367.848C444.078 364.438 445.957 359.898 445.957 355.059C445.957 352.602 445.477 350.223 444.523 347.98L458.34 342.129C460.074 346.23 460.957 350.582 460.957 355.059C460.957 363.902 457.52 372.211 451.277 378.453V378.453ZM415.098 342.27L404.492 331.664C409.117 327.039 414.949 323.914 421.352 322.633L424.297 337.344C420.805 338.043 417.621 339.746 415.098 342.27ZM440.578 342.18C438.035 339.672 434.844 337.992 431.344 337.316L434.184 322.59C440.598 323.824 446.453 326.906 451.109 331.496L440.578 342.18Z" fill="#F0C90A"/>
<path d="M108.477 180.164L97.8711 169.559C101.281 166.152 103.156 161.609 103.156 156.77C103.156 154.316 102.676 151.934 101.727 149.688L115.539 143.84C117.277 147.945 118.156 152.297 118.156 156.77C118.156 165.617 114.719 173.926 108.477 180.164ZM72.2969 143.984L61.6914 133.379C66.3164 128.754 72.1484 125.629 78.5508 124.348L81.4961 139.055C78.0039 139.754 74.8203 141.457 72.2969 143.984ZM97.7773 143.891C95.2344 141.387 92.0391 139.703 88.5391 139.027L91.3789 124.301C97.7969 125.535 103.648 128.617 108.309 133.207L97.7773 143.891Z" fill="#F0C90A"/>
<path d="M108.477 378.453L97.8711 367.848C101.277 364.438 103.156 359.898 103.156 355.059C103.156 352.602 102.676 350.223 101.727 347.98L115.539 342.129C117.277 346.23 118.156 350.582 118.156 355.059C118.156 363.902 114.719 372.211 108.477 378.453ZM72.2969 342.27L61.6914 331.664C66.3164 327.039 72.1484 323.914 78.5508 322.633L81.4961 337.344C78.0039 338.043 74.8203 339.746 72.2969 342.27ZM97.7773 342.18C95.2344 339.672 92.043 337.992 88.543 337.316L91.3828 322.59C97.7969 323.824 103.652 326.906 108.309 331.496L97.7773 342.18Z" fill="#F0C90A"/>
</svg>
