<svg width="1350" height="796" viewBox="0 0 1350 796" fill="none" xmlns="http://www.w3.org/2000/svg">
<path d="M64.3094 334.545L3 455.808L88.1101 541.822L126.673 503.258C126.673 503.258 78.4693 465.448 97.6002 441.346C116.731 417.244 204.402 334.545 204.402 334.545L133.904 194L91.876 280.165V361.358L64.3094 334.545Z" stroke="url(#paint0_linear)" stroke-width="4"/>
<path d="M132.397 587.917L94.2862 549.806V549.053L166.743 476.596C166.743 476.596 176.534 465.148 176.534 457.314C176.534 449.481 166.743 438.033 166.743 438.033L140.08 411.069L207.114 344.035L263 457.314L132.397 587.917Z" stroke="url(#paint1_linear)" stroke-width="4"/>
<path d="M949.619 286.089L827 528.615L997.22 700.643L1074.35 623.517C1074.35 623.517 977.939 547.897 1016.2 499.693C1054.46 451.489 1229.8 286.089 1229.8 286.089L1088.81 5L1004.75 177.329V339.716L949.619 286.089Z" stroke="url(#paint2_linear)" stroke-width="4"/>
<path d="M1085.79 792.834L1009.57 716.611V715.105L1154.49 570.192C1154.49 570.192 1174.07 547.295 1174.07 531.629C1174.07 515.963 1154.49 493.066 1154.49 493.066L1101.16 439.138L1235.23 305.07L1347 531.629L1085.79 792.834Z" stroke="url(#paint3_linear)" stroke-width="4"/>
<rect x="495" y="354" width="100" height="4" fill="url(#paint4_linear)"/>
<rect x="495" y="432" width="100" height="4" fill="url(#paint5_linear)"/>
<path d="M497.414 397.586C496.633 396.805 495.367 396.805 494.586 397.586L481.858 410.314C481.077 411.095 481.077 412.361 481.858 413.142C482.639 413.923 483.905 413.923 484.686 413.142L496 401.828L507.314 413.142C508.095 413.923 509.361 413.923 510.142 413.142C510.923 412.361 510.923 411.095 510.142 410.314L497.414 397.586ZM498 436V399H494V436H498Z" fill="url(#paint6_linear)"/>
<path d="M593.586 392.414C594.367 393.195 595.633 393.195 596.414 392.414L609.142 379.686C609.923 378.905 609.923 377.639 609.142 376.858C608.361 376.077 607.095 376.077 606.314 376.858L595 388.172L583.686 376.858C582.905 376.077 581.639 376.077 580.858 376.858C580.077 377.639 580.077 378.905 580.858 379.686L593.586 392.414ZM593 354V391H597V354H593Z" fill="url(#paint7_linear)"/>
<defs>
<linearGradient id="paint0_linear" x1="263.768" y1="320.71" x2="-101.457" y2="409.931" gradientUnits="userSpaceOnUse">
<stop stop-color="#F0C90A"/>
<stop offset="0.848958" stop-color="#00A3E0"/>
</linearGradient>
<linearGradient id="paint1_linear" x1="312.73" y1="432.88" x2="13.9727" y2="520.074" gradientUnits="userSpaceOnUse">
<stop stop-color="#F0C90A"/>
<stop offset="0.848958" stop-color="#00A3E0"/>
</linearGradient>
<linearGradient id="paint2_linear" x1="1348.54" y1="258.42" x2="618.085" y2="436.861" gradientUnits="userSpaceOnUse">
<stop stop-color="#F0C90A"/>
<stop offset="0.848958" stop-color="#00A3E0"/>
</linearGradient>
<linearGradient id="paint3_linear" x1="1446.46" y1="482.761" x2="848.945" y2="657.149" gradientUnits="userSpaceOnUse">
<stop stop-color="#F0C90A"/>
<stop offset="0.848958" stop-color="#00A3E0"/>
</linearGradient>
<linearGradient id="paint4_linear" x1="545" y1="354" x2="545" y2="358" gradientUnits="userSpaceOnUse">
<stop stop-color="#F0C90A"/>
<stop offset="1" stop-color="#03A2E9"/>
</linearGradient>
<linearGradient id="paint5_linear" x1="545" y1="432" x2="545" y2="436" gradientUnits="userSpaceOnUse">
<stop stop-color="#F0C90A"/>
<stop offset="1" stop-color="#03A2E9"/>
</linearGradient>
<linearGradient id="paint6_linear" x1="496" y1="417.5" x2="497" y2="417.5" gradientUnits="userSpaceOnUse">
<stop stop-color="#F0C90A"/>
<stop offset="1" stop-color="#03A2E9"/>
</linearGradient>
<linearGradient id="paint7_linear" x1="595" y1="372.5" x2="594" y2="372.5" gradientUnits="userSpaceOnUse">
<stop stop-color="#F0C90A"/>
<stop offset="1" stop-color="#03A2E9"/>
</linearGradient>
</defs>
</svg>
