<svg width="429" height="429" viewBox="0 0 429 429" fill="none" xmlns="http://www.w3.org/2000/svg">
<g clip-path="url(#clip0)">
<path d="M393.8 110.208C393.288 98.944 393.288 88.192 393.288 77.44C393.288 68.736 386.632 62.08 377.928 62.08C313.928 62.08 265.288 43.648 224.84 4.224C218.696 -1.408 209.48 -1.408 203.336 4.224C162.888 43.648 114.248 62.08 50.2477 62.08C41.5437 62.08 34.8877 68.736 34.8877 77.44C34.8877 88.192 34.8877 98.944 34.3757 110.208C32.3277 217.728 29.2557 365.184 208.968 427.136L214.088 428.16L219.208 427.136C398.408 365.184 395.848 218.24 393.8 110.208ZM201.8 259.2C198.728 261.76 195.144 263.296 191.048 263.296H190.536C186.44 263.296 182.344 261.248 179.784 258.176L132.168 205.44L155.208 184.96L192.584 226.432L275.528 147.584L296.52 170.112L201.8 259.2Z" fill="#F0C90A"/>
</g>
<defs>
<clipPath id="clip0">
<rect width="428.16" height="428.16" fill="white"/>
</clipPath>
</defs>
</svg>
